<?xml version="1.0" encoding="utf-8"?>
<!-- Generator: Adobe Illustrator 18.1.1, SVG Export Plug-In . SVG Version: 6.00 Build 0)  -->
<svg version="1.1" id="Logo" xmlns="http://www.w3.org/2000/svg" xmlns:xlink="http://www.w3.org/1999/xlink" x="0px" y="0px"
	 viewBox="0 0 379.6 78.8" enable-background="new 0 0 379.6 78.8" xml:space="preserve">
<path fill="#ABD3F1" d="M61.9,39.4c0,15.6-12.7,28.3-28.5,28.3V11.1C49.2,11.1,61.9,23.8,61.9,39.4z"/>
<path fill="#963594" d="M5.4,39.4c0-15.6,12.6-28.3,28-28.3v56.6C18,67.7,5.4,55,5.4,39.4z"/>
<path fill="#5B1D57" d="M33.5,61.4c-12.1,0-22-9.8-22-22s9.8-22,22-22V61.4z"/>
<linearGradient id="SVGID_1_" gradientUnits="userSpaceOnUse" x1="44.4247" y1="61.3981" x2="44.4247" y2="17.4814">
	<stop  offset="0" style="stop-color:#9FCEEF"/>
	<stop  offset="1" style="stop-color:#53B2E5"/>
</linearGradient>
<path fill="url(#SVGID_1_)" d="M55.4,39.4c0,12.1-9.8,22-22,22V17.5C45.6,17.5,55.4,27.3,55.4,39.4z"/>
<linearGradient id="SVGID_2_" gradientUnits="userSpaceOnUse" x1="26.6281" y1="17.5077" x2="26.6281" y2="61.3981">
	<stop  offset="0" style="stop-color:#C2E8F8"/>
	<stop  offset="1" style="stop-color:#24ABE2"/>
</linearGradient>
<path fill="url(#SVGID_2_)" d="M33.4,61.4c-7.5,0-13.6-9.8-13.6-22s6.1-21.9,13.6-21.9V61.4z"/>
<radialGradient id="SVGID_3_" cx="36.1435" cy="34.2731" r="13.1784" gradientUnits="userSpaceOnUse">
	<stop  offset="0.1399" style="stop-color:#FFFFFF"/>
	<stop  offset="1" style="stop-color:#FFF200"/>
</radialGradient>
<path fill="url(#SVGID_3_)" d="M33.7,24.1c-0.4,0-0.7,0.1-1,0.2c-5,0.6-9,7.2-9,15.2c0,8.4,4.4,15.3,9.8,15.3v0c0.1,0-0.1,0,0,0
	c8.5,0,15.5-6.9,15.5-15.3S42.1,24.1,33.7,24.1z"/>
<g>
	<path d="M100.1,26.3l-3.7,6.4c-2-1.9-4.7-2.8-8.1-2.8c-3.2,0-5.8,1.1-7.7,3.2s-2.8,5.1-2.8,8.9c0,7.7,3.7,11.5,11,11.5
		c3.2,0,5.9-1,8.4-3.1l3.1,6.7c-2.5,1.5-4.6,2.5-6.5,2.9s-4,0.6-6.6,0.6c-5.6,0-10.1-1.6-13.4-4.9s-4.9-7.9-4.9-13.7
		c0-5.8,1.8-10.4,5.4-14c3.6-3.5,8.4-5.3,14.6-5.3C93.3,22.7,97,23.9,100.1,26.3z"/>
	<path d="M104.8,41.6c0-5.6,1.6-10.1,4.8-13.6c3.2-3.5,7.5-5.3,12.7-5.3c5.6,0,9.9,1.7,12.9,5.1s4.6,8,4.6,13.8
		c0,5.8-1.6,10.5-4.7,13.9s-7.4,5.2-12.8,5.2c-5.6,0-9.9-1.7-13-5.2C106.4,52,104.8,47.3,104.8,41.6z M113.7,41.6
		c0,8.1,2.9,12.1,8.7,12.1c2.7,0,4.8-1,6.3-3.1c1.6-2.1,2.3-5.1,2.3-8.9c0-7.9-2.9-11.9-8.7-11.9c-2.7,0-4.8,1-6.3,3.1
		C114.5,34.9,113.7,37.8,113.7,41.6z"/>
	<path d="M170.3,59.9v-2.2c-0.7,0.8-1.9,1.5-3.6,2c-1.7,0.6-3.4,0.9-5.2,0.9c-5.1,0-9.1-1.6-12-4.8c-2.9-3.2-4.4-7.7-4.4-13.5
		s1.7-10.5,5-14.1c3.4-3.6,7.6-5.4,12.6-5.4c2.8,0,5.3,0.6,7.6,1.7V9.8l8.5-2v52.2H170.3z M170.3,32.1c-1.8-1.5-3.7-2.2-5.7-2.2
		c-3.4,0-6,1-7.9,3.1s-2.8,5.1-2.8,9c0,7.6,3.7,11.4,11,11.4c0.8,0,1.8-0.2,3-0.7c1.2-0.5,2-1,2.3-1.5V32.1z"/>
	<path d="M220,44.3h-26.1c0.2,2.9,1.2,5.2,3,6.8c1.8,1.6,4.3,2.4,7.4,2.4c3.9,0,6.8-1,8.9-3l3.3,6.5c-3,2.4-7.5,3.7-13.4,3.7
		c-5.6,0-10-1.6-13.2-4.9c-3.2-3.3-4.9-7.8-4.9-13.7c0-5.8,1.8-10.4,5.3-14c3.6-3.6,7.8-5.4,12.8-5.4c5.3,0,9.6,1.6,12.8,4.7
		c3.2,3.2,4.8,7.2,4.8,12.1C220.7,40.6,220.5,42.2,220,44.3z M194.2,37.9h18c-0.6-5.3-3.5-8-8.9-8C198.4,29.8,195.4,32.5,194.2,37.9
		z"/>
	<path d="M235.4,59v15.3h-8.5V23.4h8.5v2.5c2.1-2.1,4.8-3.1,7.9-3.1c11.6,0,17.5,6.4,17.5,19.2c0,6-1.6,10.6-4.8,13.8
		c-3.2,3.2-7.6,4.8-13.2,4.8C240,60.6,237.6,60.1,235.4,59z M235.4,32.3v19.2c1.5,1.3,3.4,1.9,5.4,1.9c3.9,0,6.8-0.9,8.5-2.8
		c1.7-1.9,2.6-4.8,2.6-8.9c0-4.3-0.9-7.4-2.6-9.1c-1.7-1.8-4.5-2.6-8.5-2.6C238.8,29.9,237,30.7,235.4,32.3z"/>
	<path d="M269.7,9.8l8.5-2v41.1c0,4.5,1.3,7.2,4,8.1c-1.3,2.5-3.6,3.8-6.8,3.8c-3.9,0-5.8-2.7-5.8-8.1V9.8z"/>
	<path d="M309.2,56.3c-0.8,1.3-2.1,2.3-4,3.1c-1.9,0.8-3.9,1.2-6,1.2c-3.9,0-7-1-9.3-3c-2.3-2-3.4-4.8-3.4-8.4
		c0-4.2,1.6-7.5,4.8-9.9s7.7-3.6,13.5-3.6c1,0,2.2,0.2,3.5,0.5c0-4.3-2.7-6.5-8.2-6.5c-3.2,0-5.9,0.5-8.1,1.6l-1.8-6.6
		c2.9-1.4,6.4-2.1,10.5-2.1c5.6,0,9.7,1.3,12.3,3.8c2.6,2.5,3.9,7.3,3.9,14.4v7.8c0,4.9,1,7.9,2.9,9.2c-0.7,1.2-1.5,2-2.4,2.3
		c-0.9,0.3-1.9,0.4-3,0.4c-1.2,0-2.3-0.5-3.3-1.4S309.5,57.4,309.2,56.3z M308.4,42.7c-1.5-0.3-2.5-0.4-3.3-0.4
		c-6.7,0-10.1,2.2-10.1,6.6c0,3.3,1.9,4.9,5.7,4.9c5.1,0,7.7-2.6,7.7-7.7V42.7z"/>
	<path d="M342.3,65.8c-0.9,2.4-2.9,4.5-5.9,6.1c-3,1.6-6.5,2.4-10.5,2.4v-7.5c6.6,0,9.9-1.7,9.9-4.9c0-2.2-0.9-5.5-2.7-10
		l-11.4-28.4h8.8l10,25.3l9-25.3h8.8L342.3,65.8z"/>
</g>
<g id="Hand">
	<circle fill="none" stroke="#000000" stroke-width="1.2" stroke-miterlimit="10" cx="368.9" cy="16.3" r="6.6"/>
	<path fill-rule="evenodd" clip-rule="evenodd" d="M370.7,19.2c0,0,0.9-0.7,1.1-0.8c0,0,0.9-0.5,0.9-0.6c0,0,0.5-0.2,0.2-0.6
		c0,0-0.5-0.5-1.4,0.3c0,0-0.2,0.2-0.3,0.2c0,0-0.8,0.6-0.9,0.5c0,0-0.3-0.5,0-0.9c0,0,0.4-0.6,0.4-0.7c0,0,0.1-0.2,0.3-0.3
		c0,0,0.4-0.5,0.5-0.6c0,0,0.6-0.8,0.6-0.9c0,0,0.1-0.2,0.2-0.3c0,0,0.6-0.9,0.3-1.1c0,0-0.3-0.5-0.8,0.3l-0.2,0.3
		c0,0-0.2,0.3-0.3,0.4c0,0-0.4,0.4-0.5,0.6c0,0-0.5,0.5-0.6,0.7c0,0-0.2,0.2-0.3,0.2c0,0-0.2,0.1,0.1-0.3c0,0,0.5-0.8,0.5-0.9
		c0,0,0.6-1,0.5-1.1c0,0,0.4-0.8,0.4-0.8c0,0,0.3-0.5-0.2-0.7c0,0-0.4,0-0.6,0.6c0,0-0.4,0.7-0.4,0.7c0,0-0.5,0.7-0.5,0.8
		c0,0-0.7,1-0.8,1.2c0,0-0.3,0.2-0.1-0.3c0,0,0.2-0.6,0.2-0.9c0,0,0.3-0.7,0.2-0.8c0,0,0.2-0.2,0.2-0.4c0,0,0.6-0.8,0.2-1
		c0,0-0.3-0.3-0.7,0.3c0,0-0.3,0.5-0.3,0.7c0,0-0.6,1-0.6,1.2c0,0-0.4,1.2-0.5,1.2c0,0-0.4,0.1-0.3-0.3c0,0,0-0.3,0-0.5
		c0,0,0-0.6,0-0.8c0,0,0-0.4,0.1-0.6c0,0,0.2-0.8-0.1-0.9c0,0-0.5-0.2-0.6,1.1c0,0-0.1,0.8-0.1,1c0,0-0.1,1.1-0.1,1.3
		c0,0-0.5,1.7-0.6,1.7c0,0-0.1,0.8-0.1,1.4c0,0,0.1,0.8,1,1.1l0.5,0.4c0,0,0.9,0.4,1.4,0.1C368.4,20.5,369.9,20,370.7,19.2z"/>
</g>
<g>
</g>
<g>
</g>
<g>
</g>
<g>
</g>
<g>
</g>
<g>
</g>
</svg>
